<svg width="36" height="36" viewBox="0 0 36 36" fill="none" xmlns="http://www.w3.org/2000/svg" xmlns:xlink="http://www.w3.org/1999/xlink">
    <defs/>
    <circle id="Ellipse 1" cx="18.000000" cy="18.000000" r="18.000000" fill="#D9D9D9" fill-opacity="1.000000"/>
    <path id="person" d="M18 18C19.06 18 20.07 17.57 20.82 16.82C21.57 16.07 22 15.06 22 14C22 12.93 21.57 11.92 20.82 11.17C20.07 10.42 19.06 10 18 10C16.93 10 15.92 10.42 15.17 11.17C14.42 11.92 14 12.93 14 14C14 15.06 14.42 16.07 15.17 16.82C15.92 17.57 16.93 18 18 18ZM20.66 14C20.66 14.7 20.38 15.38 19.88 15.88C19.38 16.38 18.7 16.66 18 16.66C17.29 16.66 16.61 16.38 16.11 15.88C15.61 15.38 15.33 14.7 15.33 14C15.33 13.29 15.61 12.61 16.11 12.11C16.61 11.61 17.29 11.33 18 11.33C18.7 11.33 19.38 11.61 19.88 12.11C20.38 12.61 20.66 13.29 20.66 14ZM26 24.66C26 26 24.66 26 24.66 26L11.33 26C11.33 26 10 26 10 24.66C10 23.33 11.33 19.33 18 19.33C24.66 19.33 26 23.33 26 24.66ZM24.66 24.66C24.66 24.33 24.46 23.34 23.55 22.44C22.68 21.57 21.05 20.66 18 20.66C14.94 20.66 13.31 21.57 12.44 22.44C11.53 23.34 11.33 24.33 11.33 24.66L24.66 24.66Z" fill="#6C757D" fill-opacity="1.000000" fill-rule="nonzero"/>
</svg>
