<svg width="14" height="14" viewBox="0 0 14 14" fill="none" xmlns="http://www.w3.org/2000/svg" xmlns:xlink="http://www.w3.org/1999/xlink">
    <defs/>
    <path id="mail" d="M7.38843 0.117554L13.6885 4.31763C13.8831 4.44775 14 4.66626 14 4.90002L14 12.6C14 13.3721 13.3721 14 12.6001 14L1.3999 14C0.62793 14 0 13.3721 0 12.6L0 4.90002C0 4.66626 0.116943 4.44775 0.312256 4.31763L6.6123 0.117554C6.84741 -0.0391846 7.15332 -0.0391846 7.38843 0.117554ZM7 1.54138L12.0378 4.90002L7 8.25854L1.96216 4.90002L7 1.54138ZM1.3999 6.20825L1.3999 12.6L12.5979 12.6L12.6001 6.20825L7.38843 9.68237C7.271 9.76074 7.13501 9.80005 7 9.80005C6.86499 9.80005 6.729 9.76074 6.61157 9.68237L1.3999 6.20825Z" clip-rule="evenodd" fill="#6C757D" fill-opacity="1.000000" fill-rule="evenodd"/>
</svg>
