<svg width="13" height="16" viewBox="0 0 13 16" fill="none" xmlns="http://www.w3.org/2000/svg" xmlns:xlink="http://www.w3.org/1999/xlink">
    <defs/>
    <path id="lock" d="M2.3999 4C2.3999 1.79443 4.19434 0 6.3999 0C8.60571 0 10.3999 1.79443 10.3999 4L10.3999 6.40002L11.2 6.40002C12.0825 6.40002 12.8 7.11755 12.8 8L12.8 14.4C12.8 15.2823 12.0825 16 11.2 16L1.6001 16C0.717529 16 0 15.2823 0 14.4L0 8C0 7.11755 0.717529 6.40002 1.6001 6.40002L2.3999 6.40002L2.3999 4ZM4 4L4 6.40002L8.80005 6.40002L8.80005 4C8.80005 2.67676 7.72314 1.59998 6.3999 1.59998C5.0769 1.59998 4 2.67676 4 4ZM11.2 8L11.2017 14.4L1.6001 14.4L1.6001 8L11.2 8Z" clip-rule="evenodd" fill="#6C757D" fill-opacity="1.000000" fill-rule="evenodd"/>
</svg>