<svg width="16" height="16" viewBox="0 0 16 16" fill="none" xmlns="http://www.w3.org/2000/svg" xmlns:xlink="http://www.w3.org/1999/xlink">
    <path id="v2 (Stroke)" d="M12.14 0.14C12.34 -0.05 12.65 -0.05 12.85 0.14L15.85 3.14C16.04 3.34 16.04 3.65 15.85 3.85L5.85 13.85C5.8 13.9 5.74 13.93 5.68 13.96L0.68 15.96C0.5 16.03 0.28 15.99 0.14 15.85C0 15.71 -0.04 15.5 0.03 15.31L2.03 10.31C2.06 10.25 2.09 10.19 2.14 10.14L12.14 0.14ZM11.2 2.5L13.5 4.79L14.79 3.5L12.5 1.2L11.2 2.5ZM12.79 5.5L10.5 3.2L4 9.7L4 10L4.5 10C4.77 10 5 10.22 5 10.5L5 11L5.5 11C5.77 11 6 11.22 6 11.5L6 12L6.29 12L12.79 5.5ZM3.03 10.67L2.92 10.78L1.39 14.6L5.21 13.07L5.32 12.96C5.13 12.89 5 12.71 5 12.5L5 12L4.5 12C4.22 12 4 11.77 4 11.5L4 11L3.5 11C3.28 11 3.1 10.86 3.03 10.67Z" fill="#000000" fill-opacity="1.000000" fill-rule="nonzero"/>
</svg>
