<svg width="16" height="16" viewBox="0 0 16 16" fill="none" xmlns="http://www.w3.org/2000/svg" xmlns:xlink="http://www.w3.org/1999/xlink">
    <defs/>
    <path id="person" d="M8 8C9.06 8 10.07 7.57 10.82 6.82C11.57 6.07 12 5.06 12 4C12 2.93 11.57 1.92 10.82 1.17C10.07 0.42 9.06 0 8 0C6.93 0 5.92 0.42 5.17 1.17C4.42 1.92 4 2.93 4 4C4 5.06 4.42 6.07 5.17 6.82C5.92 7.57 6.93 8 8 8ZM10.66 4C10.66 4.7 10.38 5.38 9.88 5.88C9.38 6.38 8.7 6.66 8 6.66C7.29 6.66 6.61 6.38 6.11 5.88C5.61 5.38 5.33 4.7 5.33 4C5.33 3.29 5.61 2.61 6.11 2.11C6.61 1.61 7.29 1.33 8 1.33C8.7 1.33 9.38 1.61 9.88 2.11C10.38 2.61 10.66 3.29 10.66 4ZM16 14.66C16 16 14.66 16 14.66 16L1.33 16C1.33 16 0 16 0 14.66C0 13.33 1.33 9.33 8 9.33C14.66 9.33 16 13.33 16 14.66ZM14.66 14.66C14.66 14.33 14.46 13.34 13.55 12.44C12.68 11.57 11.05 10.66 8 10.66C4.94 10.66 3.31 11.57 2.44 12.44C1.53 13.34 1.33 14.33 1.33 14.66L14.66 14.66Z" fill="#6C757D" fill-opacity="1.000000" fill-rule="nonzero"/>
</svg>
