<svg width="13" height="15" viewBox="0 0 13 15" fill="none" xmlns="http://www.w3.org/2000/svg" xmlns:xlink="http://www.w3.org/1999/xlink">
    <path id="Union" d="M11.5 4C12.05 4 12.5 3.55 12.5 3L12.5 2C12.5 1.44 12.05 1 11.5 1L8 1C8 0.44 7.55 0 7 0L5 0C4.44 0 4 0.44 4 1L0.5 1C-0.06 1 -0.5 1.44 -0.5 2L-0.5 3C-0.5 3.55 -0.06 4 0.5 4L1 4L1 13C1 14.1 1.89 15 3 15L9 15C10.1 15 11 14.1 11 13L11 4L11.5 4ZM0.5 2L0.5 3L11.5 3L11.5 2L0.5 2ZM2 4.05L2.11 4L9.88 4L10 4.05L10 13C10 13.55 9.55 14 9 14L3 14C2.44 14 2 13.55 2 13L2 4.05ZM4 6C4 5.72 3.77 5.5 3.5 5.5C3.22 5.5 3 5.72 3 6L3 12C3 12.27 3.22 12.5 3.5 12.5C3.77 12.5 4 12.27 4 12L4 6ZM6.5 6C6.5 5.72 6.27 5.5 6 5.5C5.72 5.5 5.5 5.72 5.5 6L5.5 12C5.5 12.27 5.72 12.5 6 12.5C6.27 12.5 6.5 12.27 6.5 12L6.5 6ZM9 6C9 5.72 8.77 5.5 8.5 5.5C8.22 5.5 8 5.72 8 6L8 12C8 12.27 8.22 12.5 8.5 12.5C8.77 12.5 9 12.27 9 12L9 6Z" fill="#000000" fill-opacity="1.000000" fill-rule="evenodd"/>
</svg>
